<svg width="32" height="32" viewBox="0 0 32 32" fill="none" xmlns="http://www.w3.org/2000/svg">
<path d="M15.9998 31.9452C18.1065 31.9452 19.9198 30.5985 20.5865 28.7185H11.4132C12.0798 30.5985 13.8932 31.9452 15.9998 31.9452ZM28.8665 23.0252C28.8132 22.9585 28.7598 22.8919 28.6932 22.8252C28.6398 22.7585 28.5865 22.7052 28.5198 22.6519C28.2798 22.4519 28.0398 22.2252 27.8265 21.9985C27.3865 21.5452 27.0132 21.0385 26.6798 20.5052C25.8798 19.1719 25.4398 17.6252 25.4398 16.0252V13.4119C25.4398 9.24119 22.7105 5.69452 18.9478 4.45052V3.02919C18.9478 1.40385 17.6252 0.0825195 15.9998 0.0825195C14.3745 0.0825195 13.0518 1.40519 13.0518 3.02919V4.45052C9.28917 5.69319 6.55984 9.24119 6.55984 13.4119V16.0252C6.55984 16.3452 6.5465 16.6652 6.5065 16.9719C6.37317 18.2385 5.95984 19.4385 5.3065 20.5185C5.0665 20.9185 4.77317 21.3185 4.43984 21.6785C4.35984 21.7985 4.2665 21.9052 4.15984 22.0119C4.05317 22.1185 3.9465 22.2385 3.8265 22.3452C3.7065 22.4652 3.5865 22.5719 3.4665 22.6652V22.6785C3.39984 22.7319 3.3465 22.7852 3.29317 22.8519C2.89317 23.2785 2.6665 23.8385 2.6665 24.4119C2.6665 25.6785 3.69317 26.7185 4.95984 26.7185H11.1732H13.0398H18.9598H20.8265H27.0398C28.3065 26.7185 29.3332 25.6785 29.3332 24.4119C29.3332 23.9052 29.1732 23.4252 28.8665 23.0252Z" fill="#D1D1D1"/>
</svg>
