<svg width="32" height="32" viewBox="0 0 32 32" fill="none" xmlns="http://www.w3.org/2000/svg">
<path d="M15.9999 20.1428C18.3095 20.1428 20.1819 18.2705 20.1819 15.9608C20.1819 13.6512 18.3095 11.7788 15.9999 11.7788C13.6902 11.7788 11.8179 13.6512 11.8179 15.9608C11.8179 18.2705 13.6902 20.1428 15.9999 20.1428Z" fill="#D1D1D1"/>
<path d="M28 13H26.594C26.3628 12.1728 26.0345 11.376 25.616 10.626L26.605 9.636C26.9749 9.25811 27.1821 8.75033 27.1821 8.2215C27.1821 7.69267 26.9749 7.18489 26.605 6.807L25.192 5.394C24.8111 5.03017 24.3047 4.82714 23.778 4.82714C23.2513 4.82714 22.7449 5.03017 22.364 5.394L21.386 6.371C20.6331 5.94559 19.8321 5.61156 19 5.376V4C19 3.46957 18.7893 2.96086 18.4142 2.58579C18.0391 2.21071 17.5304 2 17 2H15C14.4696 2 13.9609 2.21071 13.5858 2.58579C13.2107 2.96086 13 3.46957 13 4V5.376C12.1676 5.61148 11.3662 5.94551 10.613 6.371L9.636 5.394C9.45027 5.2082 9.22976 5.06081 8.98705 4.96025C8.74435 4.85969 8.48421 4.80793 8.2215 4.80793C7.95879 4.80793 7.69865 4.85969 7.45595 4.96025C7.21324 5.06081 6.99273 5.2082 6.807 5.394L5.394 6.808C5.02436 7.18584 4.81737 7.69341 4.81737 8.222C4.81737 8.75059 5.02436 9.25816 5.394 9.636L6.384 10.626C5.96546 11.376 5.63718 12.1728 5.406 13H4C3.46957 13 2.96086 13.2107 2.58579 13.5858C2.21071 13.9609 2 14.4696 2 15V17C2 17.5304 2.21071 18.0391 2.58579 18.4142C2.96086 18.7893 3.46957 19 4 19H5.427C5.66145 19.8185 5.99138 20.6066 6.41 21.348L5.394 22.364C5.02406 22.7419 4.81688 23.2497 4.81688 23.7785C4.81688 24.3073 5.02406 24.8151 5.394 25.193L6.808 26.607C6.99373 26.7928 7.21424 26.9402 7.45695 27.0408C7.69965 27.1413 7.95979 27.1931 8.2225 27.1931C8.48521 27.1931 8.74535 27.1413 8.98805 27.0408C9.23076 26.9402 9.45127 26.7928 9.637 26.607L10.666 25.578C11.4038 25.99 12.187 26.3145 13 26.545V28C13 28.5304 13.2107 29.0391 13.5858 29.4142C13.9609 29.7893 14.4696 30 15 30H17C17.5304 30 18.0391 29.7893 18.4142 29.4142C18.7893 29.0391 19 28.5304 19 28V26.545C19.8133 26.3142 20.5969 25.9893 21.335 25.577L22.364 26.605C22.7449 26.9691 23.2516 27.1723 23.7785 27.1723C24.3054 27.1723 24.8121 26.9691 25.193 26.605L26.607 25.191C26.9766 24.8132 27.1836 24.3056 27.1836 23.777C27.1836 23.2484 26.9766 22.7408 26.607 22.363L25.59 21.348C26.0086 20.6066 26.3386 19.8185 26.573 19H28C28.5304 19 29.0391 18.7893 29.4142 18.4142C29.7893 18.0391 30 17.5304 30 17V15C30 14.4696 29.7893 13.9609 29.4142 13.5858C29.0391 13.2107 28.5304 13 28 13ZM16 22.142C14.7776 22.1418 13.5827 21.7792 12.5664 21.0999C11.5501 20.4206 10.758 19.4553 10.2903 18.3259C9.82261 17.1965 9.70029 15.9538 9.93882 14.7549C10.1773 13.556 10.766 12.4547 11.6304 11.5904C12.4947 10.726 13.596 10.1373 14.7949 9.89882C15.9938 9.66029 17.2365 9.78261 18.3659 10.2503C19.4953 10.718 20.4606 11.5101 21.1399 12.5264C21.8191 13.5427 22.1818 14.7376 22.182 15.96C22.1804 17.5991 21.5286 19.1706 20.3696 20.3296C19.2106 21.4886 17.6391 22.1404 16 22.142Z" fill="#D1D1D1"/>
</svg>
