<svg width="32" height="32" viewBox="0 0 32 32" fill="none" xmlns="http://www.w3.org/2000/svg">
<path d="M20 29.3332C18.4177 29.3332 16.871 28.864 15.5554 27.9849C14.2398 27.1059 13.2145 25.8564 12.609 24.3946C12.0035 22.9328 11.845 21.3243 12.1537 19.7724C12.4624 18.2206 13.2243 16.7951 14.3431 15.6763C15.462 14.5575 16.8874 13.7956 18.4393 13.4869C19.9911 13.1782 21.5997 13.3366 23.0615 13.9421C24.5233 14.5476 25.7727 15.573 26.6518 16.8886C27.5308 18.2042 28 19.7509 28 21.3332C28 23.4549 27.1571 25.4897 25.6569 26.99C24.1566 28.4903 22.1217 29.3332 20 29.3332ZM11.3333 11.8092C15.384 11.8092 18.6667 9.7625 18.6667 7.2385C18.6667 4.7145 15.384 2.6665 11.3333 2.6665C7.28267 2.6665 4 4.71317 4 7.2385C4 9.76384 7.28267 11.8092 11.3333 11.8092ZM10.2307 17.0665C10.6858 16.0344 11.3014 15.0808 12.0547 14.2412C11.8147 14.2558 11.58 14.2852 11.3333 14.2852C7.28267 14.2852 4 12.2385 4 9.7145V12.5705C4 14.8598 6.70933 16.7318 10.2307 17.0665ZM9.51867 23.2745C9.39796 22.6344 9.33593 21.9846 9.33333 21.3332C9.33333 21.0132 9.35333 20.6972 9.38133 20.3838C6.28267 19.8518 4 18.1012 4 15.9998V18.8572C4 20.9892 6.34933 22.7692 9.51867 23.2745ZM11.3333 29.3332C11.8143 29.3328 12.2947 29.303 12.772 29.2438C12.4419 28.9339 12.1415 28.5937 11.8747 28.2278C11.4021 27.6736 10.9871 27.0727 10.636 26.4345C6.91733 26.2132 4 24.2812 4 21.9052V24.7612C4 27.2865 7.28267 29.3332 11.3333 29.3332Z" fill="#D1D1D1"/>
</svg>
