<svg width="32" height="32" viewBox="0 0 32 32" fill="none" xmlns="http://www.w3.org/2000/svg">
<path d="M14.6666 5.3335V10.6668C14.6666 11.7277 14.2452 12.7451 13.495 13.4953C12.7449 14.2454 11.7275 14.6668 10.6666 14.6668H5.33325C4.27239 14.6668 3.25497 14.2454 2.50482 13.4953C1.75468 12.7451 1.33325 11.7277 1.33325 10.6668V5.3335C1.33325 4.27263 1.75468 3.25521 2.50482 2.50507C3.25497 1.75492 4.27239 1.3335 5.33325 1.3335H10.6666C11.7275 1.3335 12.7449 1.75492 13.495 2.50507C14.2452 3.25521 14.6666 4.27263 14.6666 5.3335ZM26.6666 1.3335H21.3333C20.2724 1.3335 19.255 1.75492 18.5048 2.50507C17.7547 3.25521 17.3333 4.27263 17.3333 5.3335V10.6668C17.3333 11.7277 17.7547 12.7451 18.5048 13.4953C19.255 14.2454 20.2724 14.6668 21.3333 14.6668H26.6666C27.7274 14.6668 28.7449 14.2454 29.495 13.4953C30.2452 12.7451 30.6666 11.7277 30.6666 10.6668V5.3335C30.6666 4.27263 30.2452 3.25521 29.495 2.50507C28.7449 1.75492 27.7274 1.3335 26.6666 1.3335ZM10.6666 17.3335H5.33325C4.27239 17.3335 3.25497 17.7549 2.50482 18.5051C1.75468 19.2552 1.33325 20.2726 1.33325 21.3335V26.6668C1.33325 27.7277 1.75468 28.7451 2.50482 29.4953C3.25497 30.2454 4.27239 30.6668 5.33325 30.6668H10.6666C11.7275 30.6668 12.7449 30.2454 13.495 29.4953C14.2452 28.7451 14.6666 27.7277 14.6666 26.6668V21.3335C14.6666 20.2726 14.2452 19.2552 13.495 18.5051C12.7449 17.7549 11.7275 17.3335 10.6666 17.3335ZM26.6666 17.3335H21.3333C20.2724 17.3335 19.255 17.7549 18.5048 18.5051C17.7547 19.2552 17.3333 20.2726 17.3333 21.3335V26.6668C17.3333 27.7277 17.7547 28.7451 18.5048 29.4953C19.255 30.2454 20.2724 30.6668 21.3333 30.6668H26.6666C27.7274 30.6668 28.7449 30.2454 29.495 29.4953C30.2452 28.7451 30.6666 27.7277 30.6666 26.6668V21.3335C30.6666 20.2726 30.2452 19.2552 29.495 18.5051C28.7449 17.7549 27.7274 17.3335 26.6666 17.3335Z" />
</svg>
