<svg width="32" height="32" viewBox="0 0 32 32" fill="none" xmlns="http://www.w3.org/2000/svg">
<path d="M6.41389 5C3.98596 5 2 6.98596 2 9.41389V22.5833C2 25.0112 3.98596 26.9972 6.41389 26.9972H25.585C28.0129 26.9972 29.9989 25.0112 29.9989 22.5833V9.41389C29.9989 6.98596 28.0129 5 25.585 5H6.41389ZM15.9955 8.40221C16.5509 8.40001 17.0016 8.85076 16.9994 9.40608V10.1814C17.215 10.2464 17.4271 10.3304 17.6283 10.4412C18.4899 10.9157 19.0824 11.7513 19.2513 12.7204C19.3434 13.2626 18.9804 13.7774 18.4388 13.8727C17.8973 13.9636 17.3838 13.6009 17.2885 13.0602C17.1524 12.3494 16.4127 11.8162 15.5971 12.1306C15.2732 12.2643 14.9807 12.5911 14.8823 12.9274C14.6282 13.8757 15.4811 14.3731 16.4682 14.943C17.1405 15.2614 18.0147 15.6308 18.6751 16.4566C19.3711 17.3268 19.593 18.481 19.2728 19.5483C18.9726 20.4845 18.1431 21.5034 16.9994 21.8099V22.5911C17.0016 23.1464 16.5509 23.5972 15.9955 23.595C15.4433 23.5928 14.9973 23.1434 14.9995 22.5911V21.7747C14.6342 21.658 14.2801 21.5011 13.9663 21.2611C13.0813 20.5841 12.5844 19.5187 12.6383 18.4057C12.6677 17.8563 13.1355 17.4339 13.6851 17.4604C14.2384 17.4858 14.6658 17.956 14.6382 18.5092C14.6177 18.9334 14.8458 19.4172 15.1831 19.6752C15.9819 20.1364 16.8945 19.9616 17.3549 18.9741C17.4769 18.5673 17.376 18.0362 17.1107 17.7046C16.1044 16.6983 14.3907 16.346 13.4117 15.1285C12.8479 14.3224 12.6863 13.311 12.9625 12.3669C13.2326 11.3589 13.9963 10.5049 14.9995 10.2361V9.40608C14.9973 8.85382 15.4433 8.40442 15.9955 8.40221L15.9955 8.40221Z" fill="#D1D1D1"/>
</svg>
