<svg width="32" height="32" viewBox="0 0 32 32" fill="none" xmlns="http://www.w3.org/2000/svg">
<path d="M5.68018 24.1701H11.4189V7.83008H5.68018C4.75 7.83008 4 8.59009 4 9.52008V12.3801C4 13.1901 4.57007 13.8901 5.37012 14.0301C6.31006 14.2101 7 15.0401 7 16.0001C7 16.9601 6.31006 17.7901 5.37012 17.9701C4.57007 18.1101 4 18.8101 4 19.6201V22.4801C4 23.4101 4.75 24.1701 5.68018 24.1701ZM26.3101 7.83008H13.4189V24.1701H26.3101C27.24 24.1701 28 23.4101 28 22.4801V19.6201C28 18.8101 27.4199 18.1101 26.6201 17.9701C25.6802 17.7901 25 16.9601 25 16.0001C25 15.0401 25.6802 14.2101 26.6301 14.0301C27.4199 13.8901 28 13.1901 28 12.3801V9.52008C28 8.59009 27.24 7.83008 26.3101 7.83008Z" fill="#D1D1D1"/>
</svg>
